<?xml version="1.0" encoding="utf-8"?>
<!-- Generator: Adobe Illustrator 16.0.0, SVG Export Plug-In . SVG Version: 6.00 Build 0)  -->
<!DOCTYPE svg PUBLIC "-//W3C//DTD SVG 1.1//EN" "http://www.w3.org/Graphics/SVG/1.1/DTD/svg11.dtd">
<svg version="1.1" id="Layer_1" xmlns="http://www.w3.org/2000/svg" xmlns:xlink="http://www.w3.org/1999/xlink" x="0px" y="0px"
	 width="632px" height="606.162px" viewBox="0 0 632 606.162" enable-background="new 0 0 632 606.162" xml:space="preserve">
<path fill="#F8EAB2" d="M558.71,17.384C472.62-32.321,344.62,28.199,272.825,152.55s-60.206,265.463,25.885,315.166
	c86.092,49.707,214.089-10.814,285.884-135.166C656.39,208.199,644.802,67.089,558.71,17.384z M284.068,413.076
	c-62.18-35.898-63.334-150.303-2.583-255.524C342.234,52.328,441.889-3.875,504.068,32.025
	c62.173,35.896,63.333,150.303,2.584,255.525C445.902,392.773,346.241,448.972,284.068,413.076z"/>
<path fill="#F8EAB2" d="M409.576,566.383c70.295-70.293,44.965-209.594-56.568-311.127S112.174,128.394,41.881,198.688
	c-70.294,70.294-44.965,209.594,56.568,311.127S339.282,636.677,409.576,566.383z M98.449,198.688
	c50.771-50.771,161.574-22.274,247.487,63.64c85.914,85.913,114.41,196.717,63.64,247.487
	c-50.763,50.763-161.574,22.273-247.487-63.64C76.176,360.261,47.687,249.451,98.449,198.688z"/>
</svg>
